<?xml version="1.0" encoding="utf-8"?>
<!-- Generator: Adobe Illustrator 14.0.0, SVG Export Plug-In . SVG Version: 6.00 Build 43363)  -->
<!DOCTYPE svg PUBLIC "-//W3C//DTD SVG 1.1//EN" "http://www.w3.org/Graphics/SVG/1.1/DTD/svg11.dtd">
<svg version="1.1"
	 id="svg2455" xmlns:svg="http://www.w3.org/2000/svg" xmlns:sodipodi="http://sodipodi.sourceforge.net/DTD/sodipodi-0.dtd"
	 xmlns="http://www.w3.org/2000/svg" xmlns:xlink="http://www.w3.org/1999/xlink" x="0px" y="0px" width="358.231px"
	 height="357.232px" viewBox="0 0 358.231 357.232" enable-background="new 0 0 358.231 357.232" xml:space="preserve">
<pattern  x="-155.908" y="562.678" width="96.697" height="77.628" patternUnits="userSpaceOnUse" id="path2615_1_" viewBox="1.758 -85.609 96.697 77.628" overflow="visible">
	<g>
		<polygon fill="none" points="1.758,-7.98 98.455,-7.98 98.455,-85.609 1.758,-85.609 		"/>
		<g>
			<polygon fill="none" points="1.758,-85.609 98.455,-85.609 98.455,-7.98 1.758,-7.98 			"/>
			<text transform="matrix(1 0 0 1 0 -58.8906)" font-family="'BitstreamVeraSans-Bold'" font-size="36">0010</text>
			<text transform="matrix(1 0 0 1 0 -33.6904)" font-family="'BitstreamVeraSans-Bold'" font-size="36">0100</text>
			<text transform="matrix(1 0 0 1 0 -8.4902)" font-family="'BitstreamVeraSans-Bold'" font-size="36">0111</text>
		</g>
	</g>
</pattern>
<g id="layer4">
	<path id="path2522" fill="#FFFFFF" stroke="#000000" stroke-width="6.25" d="M17.615,18.292l70.968,17.141l70.866-17.717
		l70.865,17.717l70.866-17.717l17.718,70.866l-17.718,70.867l17.718,70.865l-17.718,70.867l-70.866,17.715l-70.865-17.715
		l-70.866,17.715l-70.866-17.715l17.717-70.867l-17.717-70.865l17.717-70.867L17.615,18.292z"/>
	<path id="path1278" fill="#CE1126" stroke="#000000" stroke-width="0.25" d="M19.647,302.164l15.786-71.85l-17.717-70.865
		l17.717-70.867L17.716,17.716l70.866,17.717l70.866-17.717l70.865,17.717l70.866-17.717l17.718,70.866l-17.718,70.867
		l17.718,70.865l-17.718,70.867l-70.866,17.715l-70.865-17.715l-70.866,17.715L19.647,302.164z"/>
	<path id="path3681" fill="#00048C" d="M35.23,89.836L18.428,158.67l16.26,69.918l284.008,1.625l-18.429-72.085l20.597-69.918
		L35.23,89.836L35.23,89.836z"/>
	<circle id="circle8" fill="#FFFFFF" cx="179.808" cy="157.625" r="63.27"/>
	<path id="path2682" fill="#91D55D" d="M194.882,141.732c0-2.304,0-4.607,0-6.911c0-9.937-1.759-10.806-11.281-10.806
		c-14.717,0,2.635,17.717-15.582,17.717c-14.827,0,12.765-34.662-54.877,6.639c-13.555,8.277-6.08-6.639,2.032-6.639
		c12.293,0,12.266-17.717,0.678-17.717c-3.849,0,8.164-4.315,8.164-8.164c0-7.791,28.906-16.938,10.806-16.938
		c-7.284,0-10.806,13.232-10.806-4.065c0-8.114,16.558-15.951,0-17.615c-2.112-0.212,0-4.246,0-6.368c0-3.625-14.499,0-10.874,0
		c9.948,0,10.874-1.699,10.874-11.247c0-5.443-29.132-13.774-10.874-15.583c46.126-4.567,12.595-26.32,46.308-26.32
		c11.336,0-17.717,17.694-17.717,29.03c0,15.453,17.717-3.402,17.717,14.905c0,19.15,27.268,16.938,45.831,16.938
		c2.439,0,4.88,0,7.318,0c5.193,0,0-10.389,0-15.583c0-14.426,46.12-23.724,42.14-9.858c-1.837,6.396-17.335,7.064-24.424,9.18
		c-12.722,3.798,39.948,54.2,9.52,54.2c-15.318,0-5.459-10.23-19.646-10.23c-8.001,0,27.846,17.322,27.846,35.433
		c0,10.999-24.691-6.837-35.434-8.943c-4.526-0.888-6.092-8.773-10.705-8.773c-22.088,0,10.705,30.55,10.705,35.434
		c0,2.303,4.606,0,6.91,0c5.23,0-24.627,7.682-24.627-9.724C194.882,147.062,194.882,144.396,194.882,141.732L194.882,141.732z"/>
	<path id="path1901" fill="#72ACFF" d="M159.449,141.732c11.883,0.2,17.717,1.928,17.717-10.976c0-30.976,28.115-31.95,28.115-6.741
		c0,4.35,7.317,6.456,7.317,10.806c0,15.156,3.933,18.292-10.705,18.292c-2.338,0-4.675,0-7.012,0
		c-3.606,0,10.576-26.196-9.248-11.382c-7.311,5.462-17.217,6.311-26.186,7.994c-7.609,1.431-17.717,3.625-17.717-7.994
		c0-10.532-17.717-41.235-17.717-26.558c0,6.089,24.637,15.602,25.71,26.558C150.042,144.957,156.208,141.732,159.449,141.732
		L159.449,141.732z"/>
	<path id="path2680" fill="#999999" d="M106.367,194.441l8.13-17.275l-0.679,17.716l10.196-10.603l17.717-7.113l-9.621,17.716
		l9.621-6.538l8.671,6.538h9.046L148.371,212.6l-6.64,8.265l-8.942-8.265l-8.773,8.265v9.45H106.3l17.716-17.715H106.3
		l-6.708-17.718L106.367,194.441z"/>
	<path id="path2683" fill="none" stroke="#FF0000" stroke-width="2.5" d="M63.007,31.842l-9.858,21.307l17.718,8.503v26.93
		l-17.718,24.56v17.615l35.434,19.647l-17.716,16.938v9.824l17.716,17.716l17.717-17.716l17.716,17.716l17.717,42.242
		l-17.717,46.341h8.096l1.355,24.119"/>
	<path id="path1900" fill="none" stroke="#FF0000" stroke-width="2.5" d="M35.23,302.841l17.919-19.376l17.718,17.717l35.433-17.717
		v-17.717l53.149,17.717h35.434v-17.717l-17.717-17.717l17.717-35.434l17.717-17.717l17.716,17.717v17.717h17.718l17.716-17.717
		h35.434l11.146-10.703"/>
	<path id="path2679" fill="none" stroke="#243EB4" d="M27.303,194.882c11.515,0.472,16.037,24.54,25.846,28.692
		c10.663,4.513,12.9,6.74,28.15,6.74c12.399,0,1.242-10.807,16.937-10.807c7.616,0,25.779-12.904,25.779-24.627
		c0-3.226,26.556,3.456,28.421,7.689c3.15,7.15,17.615,5.058,17.615,16.938c0,14.997-10.604,7.717-10.604,17.615
		c0,12.999-6.088,10.907-17.716,10.907c-4.843,0-4.309,10.045-8.942,11.448c-16.171,4.9,10.122,7.439,15.582,12.873
		c2.822,2.81,16.333,3.804,19.646,4.064c9.303,0.736,10.849-2.361,19.647-4.064c19.136-3.703,15.583-14.449,15.583-31.164
		c0-9.53,0-19.061,0-28.59c0-2.527,16.26,17.715,16.938,17.715c7.228,0,18.142-9.27,18.969-17.715
		c0.437-4.443,8.875-5.563,8.875-10.027c0-0.452,0-0.903,0-1.354c0-16.094-6.508-41.768,11.45-41.768
		c7.718,0,7.188-17.717,14.905-17.717c5.944,0,0.637-12.405-2.033-17.717c-4.268-8.495-15.514-17.716,3.39-17.716
		c10.902,0,10.568-17.717,0.677-17.717c-7.228,0-14.453,0-21.681,0c-63.658,0-31.521-17.716-49.458-17.716
		c-3.605,0-10.397-11.418-10.397-17.717c0-7.27,35.433,12.511,35.433-17.716l0,0"/>
	<g id="g1922">
		<path id="path1903" fill="none" stroke="#826D35" stroke-width="0.375" d="M17.716,159.449c-2.18-8.965,18.451,0,27.676,0
			c16.055,0-0.744,17.717,15.583,17.717c9.203,0,18.405,0,27.608,0c1.604,0-4.794-17.717,8.299-17.717
			c7.785,0,6.325-35.434,16.26-35.434c3.56,0,3.752-21.699,4.065-25.101c1.651-18.009,24.524-25.225,24.524-52.845
			c0-9.451,0-12.127,0-21.578"/>
		<path id="path1904" fill="none" stroke="#826D35" stroke-width="0.375" d="M25.067,141.732c0-11.969,23.938,0,35.907,0
			c24.507,0,12.143-6.217,27.608-10.976c13.435-4.134-15.935-24.458,7.622-24.458c3.019,0-4.077-17.717,10.095-17.717
			c14.396,0,0-28.793,0-43.19c0-3.32,0-6.639,0-9.959"/>
		<path id="path1905" fill="none" stroke="#826D35" stroke-width="0.375" d="M177.166,17.716c0,9,0,17.999,0,26.999
			c0,18.555-17.717-1.237-17.717,15.583c0,10.81-0.375,17.12-8.367,21.002c-6.396,3.107-11.335,20.047-16.938,25
			c-11.357,10.04-16.938-2.268-16.938,17.716c0,4.257,6.809,6.549,6.809,10.806c0,23.623-17.716,15.65-17.716,33.875
			c0,10.949-17.717,6.812-17.717,26.185c0,6.438-11.396,6.474-17.716,7.688c-1.152,0.223-3.968,10.027-17.718,10.027
			c-0.354,0,2.889-17.717-9.79-17.717c-6.049,0-15.497-10.152-16.938-17.716c-0.009-0.047-1.89,0-2.033,0"/>
		<path id="path1906" fill="none" stroke="#826D35" stroke-width="0.375" d="M35.433,248.031
			c-1.601-8.403,14.079,17.717,24.864,17.717c13.818,0,19.203,2.604,28.285-6.943c2.977-3.13,8.81-7.662,11.009-10.772
			c7.103-10.046,6.708,27.676,6.708,27.71c0,5.627,11.973,15.223,17.716,16.938c8.82,2.633,20.128-0.83,28.421-1.354
			c2.332-0.147,4.674,0,7.013,0c3.285,0,0,6.571,0,9.858"/>
		<path id="path1907" fill="none" stroke="#826D35" stroke-width="0.375" d="M167.68,301.182c6.888,0,13.776,0,15.921,0
			c9.795,0,18.263-7.554,28.998-10.535c2.306-0.641,0-4.787,0-7.182c0-6.636,17.716-2.443,17.716-9.078
			c0-33.275,13.193-18.529,35.434-35.264c9.051-6.811,15.209,7.586,17.717-17.615c0.214-2.146,15.562,8.807,17.717,8.807
			c14.275,0-4.266-28.34-8.502-41.971c-1.345-4.324,7.564-10.164,8.502-11.178"/>
		<path id="path1908" fill="none" stroke="#826D35" stroke-width="0.375" d="M212.599,312.326
			c-1.606-5.168,55.639-46.578,63.819-46.578c11.064,0,22.132,0,33.198,0"/>
	</g>
	<g id="g2671">
		
			<path id="path2523" opacity="0.3293" fill="none" stroke="#000000" stroke-width="1.25" stroke-dasharray="10,1.25" enable-background="new    " d="
			M35.907,88.752l70.392,17.547l70.866-17.717l70.864,17.717l70.868-17.717"/>
		
			<path id="path2524" opacity="0.3293" fill="none" stroke="#000000" stroke-width="1.25" stroke-dasharray="10,1.25" enable-background="new    " d="
			M87.397,36.585l18.902,69.714l-17.717,70.867l17.717,70.865l-17.717,70.865"/>
		
			<path id="path2525" opacity="0.3293" fill="none" stroke="#000000" stroke-width="1.25" stroke-dasharray="10,1.25" enable-background="new    " d="
			M158.107,18.868l18.902,69.714l-17.717,70.867l17.717,70.865l-17.717,70.867"/>
		
			<path id="path2526" opacity="0.3293" fill="none" stroke="#000000" stroke-width="1.25" stroke-dasharray="10,1.25" enable-background="new    " d="
			M229.129,36.585l18.9,69.714l-17.716,70.867l17.716,70.865l-17.716,70.865"/>
		
			<path id="path2527" opacity="0.3293" fill="none" stroke="#000000" stroke-width="1.25" stroke-dasharray="10,1.25" enable-background="new    " d="
			M17.716,159.773l70.392,17.549l70.866-17.717l70.867,17.716l70.865-17.716"/>
		
			<path id="path2528" opacity="0.3293" fill="none" stroke="#000000" stroke-width="1.25" stroke-dasharray="10,1.25" enable-background="new    " d="
			M35.433,230.314l70.393,17.547l70.865-17.717l70.866,17.717l70.866-17.717"/>
		<path id="path2670" fill="none" stroke="#000000" stroke-width="6.25" d="M17.615,18.292l70.968,17.141l70.866-17.717
			l70.865,17.717l70.866-17.717l17.718,70.866l-17.718,70.867l17.718,70.865l-17.718,70.867l-70.866,17.715l-70.865-17.715
			l-70.866,17.715l-70.866-17.715l17.717-70.867l-17.717-70.865l17.717-70.867L17.615,18.292z"/>
	</g>
</g>
<g id="layer5">
	<path id="path2538" fill="none" d="M335.99,119.238c0.004,55.723-45.164,100.901-100.889,100.905
		c-55.724,0.006-100.899-45.162-100.905-100.886c0-0.006,0-0.013,0-0.019c-0.005-55.724,45.164-100.9,100.888-100.906
		c55.724-0.005,100.9,45.164,100.906,100.887C335.99,119.226,335.99,119.231,335.99,119.238z"/>
	<pattern  id="path2615_2_" xlink:href="#path2615_1_" patternTransform="matrix(1 0 0 1 123.1021 17344.3262)">
	</pattern>
	<path id="path2615" opacity="0.3598" fill="url(#path2615_2_)" enable-background="new    " d="M336.615,118.613
		c0.004,55.723-45.164,100.901-100.889,100.905c-55.724,0.006-100.899-45.162-100.905-100.886c0-0.006,0-0.013,0-0.019
		c-0.005-55.724,45.164-100.9,100.888-100.906c55.724-0.005,100.9,45.164,100.906,100.887
		C336.615,118.601,336.615,118.606,336.615,118.613z"/>
	<rect id="rect2614" x="183.767" y="59.468" fill="none" width="32.232" height="37.876"/>
	<rect id="rect2631" x="183.767" y="59.468" fill="none" width="32.232" height="28.276"/>
	<rect id="rect2684" x="379.399" y="159.449" fill="none" width="74.524" height="53.148"/>
</g>
<g id="layer1">
	<g id="g2489">
		<g id="g1774" transform="matrix(0.707107,0.707107,-0.707107,0.707107,161.6029,-155.8874)">
			
				<linearGradient id="path1736_1_" gradientUnits="userSpaceOnUse" x1="728.8995" y1="347.1975" x2="923.9373" y2="546.5691" gradientTransform="matrix(1.0001 0 0 1 -581.3249 -188.7501)">
				<stop  offset="0" style="stop-color:#747474"/>
				<stop  offset="0.5" style="stop-color:#BEBEBE"/>
				<stop  offset="0.625" style="stop-color:#D5D5D5"/>
				<stop  offset="0.75" style="stop-color:#818181"/>
				<stop  offset="1" style="stop-color:#C3C3C3"/>
			</linearGradient>
			<path id="path1736" fill="url(#path1736_1_)" stroke="#000000" stroke-width="6.25" d="M248.031,35.438
				c-58.676,0-106.313,47.604-106.312,106.281c0,52.627,38.358,96.257,88.594,104.719l0.001,37.031l35.436-0.001l0.001-37.031
				c50.235-8.462,88.593-52.092,88.593-104.719C354.344,83.041,306.709,35.437,248.031,35.438z M248.031,53.157
				c48.898,0,88.594,39.664,88.594,88.561c-0.001,48.897-39.696,88.594-88.594,88.594c-48.897,0.001-88.594-39.696-88.593-88.593
				C159.438,92.821,199.134,53.156,248.031,53.157z"/>
			
				<linearGradient id="rect1762_1_" gradientUnits="userSpaceOnUse" x1="1175.427" y1="413.0572" x2="1287.7817" y2="413.0572" gradientTransform="matrix(0.6976 0 0 1.4718 -591.5781 -207.1203)">
				<stop  offset="0" style="stop-color:#3F3318"/>
				<stop  offset="1" style="stop-color:#815F0E"/>
			</linearGradient>
			
				<linearGradient id="rect1762_2_" gradientUnits="userSpaceOnUse" x1="380.2076" y1="254.195" x2="269.0671" y2="254.8534" gradientTransform="matrix(1 0 0 1 3.051758e-05 6.103516e-05)">
				<stop  offset="0" style="stop-color:#3F3318"/>
				<stop  offset="1" style="stop-color:#815F0E"/>
			</linearGradient>
			<path id="rect1762" fill="url(#rect1762_1_)" stroke="url(#rect1762_2_)" stroke-width="7.6123" stroke-linejoin="round" d="
				M232.598,280.646h30.867c11.046,0,20,8.954,20,20v117.652c-0.001,11.046-8.955,20.001-20.001,20.001h-30.865
				c-11.044,0-20-8.954-20-20l0-117.653C212.598,289.6,221.553,280.646,232.598,280.646z"/>
		</g>
		
			<radialGradient id="path2410_1_" cx="234.6526" cy="669.459" r="35.4321" gradientTransform="matrix(0.9331 0 0 0.9331 -4.6622 -552.1118)" gradientUnits="userSpaceOnUse">
			<stop  offset="0" style="stop-color:#FFFFFF"/>
			<stop  offset="1" style="stop-color:#FFFFFF;stop-opacity:0"/>
		</radialGradient>
		<path id="path2410" fill="url(#path2410_1_)" d="M247.354,72.56c0,18.259-14.802,33.062-33.062,33.062S181.23,90.819,181.23,72.56
			c0-18.26,14.804-33.062,33.062-33.062S247.354,54.3,247.354,72.56z"/>
		
			<linearGradient id="path2416_1_" gradientUnits="userSpaceOnUse" x1="105.0237" y1="852.879" x2="213.2581" y2="852.879" gradientTransform="matrix(1.1959 0 0 0.8362 61.3696 -558.5527)">
			<stop  offset="0" style="stop-color:#000000;stop-opacity:0.5052"/>
			<stop  offset="1" style="stop-color:#000000;stop-opacity:0"/>
		</linearGradient>
		<path id="path2416" fill="url(#path2416_1_)" d="M315.063,109.375c-15.365,42.074-55.629,72.188-103.001,72.188
			c-8.645,0-17.022-1.106-25.094-3c13.752,13.164,32.351,21.312,52.875,21.312c42.26,0,76.562-34.303,76.562-76.562
			C316.406,118.551,315.897,113.897,315.063,109.375z"/>
	</g>
</g>
</svg>
